<svg width="70" height="71" viewBox="0 0 70 71" fill="none" xmlns="http://www.w3.org/2000/svg">
<g id="Group 77">
<circle id="Ellipse 31" cx="35" cy="35.1748" r="35" fill="url(#paint0_linear_425_1823)"/>
<g id="send (2) 1">
<path id="Vector" d="M52.6105 24.1652C53.3018 25.3626 53.2092 26.7884 52.3677 27.8858L33.8939 51.993C33.1321 52.9871 31.8776 53.4939 30.5948 53.2477C29.3387 53.0061 28.3427 52.0904 27.997 50.8589L25.2635 41.1303L24.9789 40.1184L24.2449 39.3659L17.1864 32.1343C16.2927 31.2192 15.9977 29.8988 16.4166 28.6902C16.8311 27.4954 17.8708 26.6284 19.1527 26.4604L49.267 22.5152C50.6381 22.3352 51.9192 22.9678 52.6105 24.1652Z" fill="white"/>
<path id="Vector_2" d="M25.2636 41.13L27.9971 50.8587C28.3427 52.0902 29.3387 53.0058 30.5949 53.2475C31.8777 53.4938 33.1321 52.9869 33.894 51.9928L52.3678 27.8857C53.2092 26.7882 53.3019 25.3624 52.6106 24.165L24.979 40.1181L25.2636 41.13Z" fill="white"/>
<path id="Vector_3" d="M36.2232 33.6263C36.5043 34.1133 36.3379 34.7364 35.8503 35.0179L25.2636 41.1301L24.9789 40.1182L24.2449 39.3657L34.8316 33.2535C35.3192 32.9721 35.9421 33.1394 36.2232 33.6263Z" fill="url(#paint1_linear_425_1823)"/>
<path id="Vector_4" d="M25.2637 41.1302L35.8504 35.018C36.3379 34.7365 36.5044 34.1135 36.2232 33.6265L24.979 40.1183L25.2637 41.1302Z" fill="url(#paint2_linear_425_1823)"/>
</g>
</g>
<defs>
<linearGradient id="paint0_linear_425_1823" x1="49.6467" y1="2.13873" x2="19.564" y2="77.9391" gradientUnits="userSpaceOnUse">
<stop stop-color="#5C76CC"/>
<stop offset="1" stop-color="#4357BC"/>
</linearGradient>
<linearGradient id="paint1_linear_425_1823" x1="32.4077" y1="34.7189" x2="33.5453" y2="36.9999" gradientUnits="userSpaceOnUse">
<stop stop-color="#747DEF"/>
<stop offset="1" stop-color="#5E3BE1"/>
</linearGradient>
<linearGradient id="paint2_linear_425_1823" x1="32.9028" y1="35.5765" x2="33.5069" y2="36.7007" gradientUnits="userSpaceOnUse">
<stop stop-color="#747DEF"/>
<stop offset="1" stop-color="#5E3BE1"/>
</linearGradient>
</defs>
</svg>
